<svg xmlns="http://www.w3.org/2000/svg" width="1600" height="450" viewBox="0 0 1600 450" version="1.1"><path d="M 801 225.500 L 801 359 1187.500 359 L 1574 359 1574 225.500 L 1574 92 1187.500 92 L 801 92 801 225.500 M 125.825 106.526 C 84.134 112.213, 53.423 133.410, 35.601 168.800 C 25.424 189.008, 21.692 207.458, 23.120 230.500 C 25.058 261.793, 42.714 293.854, 68.838 313.519 C 101.028 337.751, 142.883 345.012, 183.765 333.458 C 196.302 329.914, 214.903 320.414, 224.645 312.578 C 242.386 298.308, 255.070 280.213, 261.402 260.136 C 266.076 245.314, 267.291 235.385, 266.679 217 C 265.971 195.763, 262.987 183.101, 254.776 166.500 C 232.925 122.324, 182.373 98.812, 125.825 106.526 M 573 109.023 C 553.352 111.709, 545 117.637, 545 128.895 C 545 137.651, 549.091 142.713, 559.326 146.624 C 563.176 148.096, 568.010 150.821, 570.068 152.680 C 573.578 155.852, 605.659 196.786, 612.862 207.286 C 619.077 216.344, 619.253 217.679, 618.801 252.280 C 618.328 288.454, 618.203 289.068, 610.341 293.599 C 598.593 300.371, 596 303.714, 596 312.093 C 596 316.960, 596.298 317.582, 600.750 321.999 C 606.124 327.331, 612.902 330.289, 625.500 332.802 C 631.581 334.015, 639.618 334.394, 659 334.384 C 681.524 334.372, 685.586 334.119, 693.805 332.217 C 704.988 329.630, 712.033 326.003, 715.449 321.074 C 721.407 312.476, 719.145 301.374, 710.393 296.263 C 697.373 288.660, 696.876 287.022, 696.253 249.624 C 695.645 213.057, 696.497 208.651, 706.753 195.339 C 741.962 149.640, 747.039 144.452, 759.023 141.919 C 768.272 139.964, 772.410 136.906, 774.050 130.815 C 775.232 126.425, 773.852 119.663, 771.157 116.644 C 766.095 110.972, 752.206 107.985, 731.140 108.035 C 713.911 108.076, 702.876 109.808, 695.117 113.690 C 684.095 119.204, 682.170 126.935, 689 138.258 C 691.200 141.906, 693 145.964, 693 147.276 C 693 152.055, 683.933 166.547, 679.386 169.035 C 675.142 171.358, 669.787 166.704, 663.148 154.925 C 659.041 147.636, 659.019 145.541, 662.984 139.255 C 671.605 125.589, 665.665 114.541, 647.474 110.403 C 639.313 108.546, 583.983 107.521, 573 109.023 M 361.500 110.004 C 321.970 110.562, 319.118 110.724, 313 112.764 C 304.741 115.516, 300.147 119.311, 299.035 124.299 C 297.293 132.116, 301.362 138.109, 312.111 143.556 C 318.152 146.618, 319.463 149.215, 320.950 161.071 C 322.290 171.758, 322.320 244.619, 320.991 261.605 C 318.761 290.119, 317.288 295.208, 310.095 299.251 C 299.835 305.018, 296.169 312.615, 299.928 320.315 C 305.246 331.210, 320.858 335.017, 360 334.966 C 399.106 334.915, 413.800 331.076, 417.105 320.044 C 419.504 312.038, 416.320 306.008, 405.991 298.994 C 402.834 296.850, 399.876 294.287, 399.417 293.298 C 398.959 292.309, 398.417 280.298, 398.214 266.607 C 397.917 246.689, 398.109 241.547, 399.172 240.873 C 399.902 240.410, 402.795 240.024, 405.600 240.015 C 417.163 239.981, 425.402 251.777, 432.480 278.500 C 444.780 324.944, 455.016 335.028, 491.500 336.643 C 517.156 337.778, 538.856 330.914, 544.576 319.853 C 546.850 315.456, 546.786 309.548, 544.429 306.272 C 543.332 304.747, 539.074 301.834, 534.967 299.797 C 525.901 295.301, 525.140 293.900, 522.038 276 C 517.130 247.680, 507.751 232.064, 492.279 226.455 C 481.460 222.533, 477 220.132, 477 218.230 C 477 215.813, 480.137 213.012, 486.865 209.421 C 498.498 203.211, 507.679 190.605, 510.114 177.500 C 510.728 174.200, 510.992 167.450, 510.702 162.500 C 509.695 145.289, 502.598 132.501, 489.124 123.619 C 477.252 115.794, 465.788 112.034, 447.789 110.063 C 437.871 108.977, 434.395 108.975, 361.500 110.004 M 1108.601 114.105 C 1102.379 115.012, 1098.661 116.849, 1097.173 119.750 C 1096.679 120.712, 1081.716 162.626, 1063.922 212.891 C 1032.452 301.790, 1031.487 304.316, 1028.535 305.538 C 1026.866 306.229, 1022.013 307.352, 1017.752 308.034 L 1010.003 309.274 1008.904 313.358 C 1007.802 317.450, 1007.984 331.317, 1009.155 332.488 C 1009.497 332.831, 1015.565 332.580, 1022.639 331.931 C 1034.868 330.808, 1066.163 331.245, 1075.232 332.665 C 1078.898 333.239, 1079 333.166, 1080.982 328.542 C 1082.347 325.357, 1083 321.633, 1083 317.029 L 1083 310.224 1073.988 307.997 C 1069.031 306.772, 1064.754 305.411, 1064.482 304.971 C 1064.211 304.532, 1067.068 295.246, 1070.832 284.336 L 1077.677 264.500 1105.523 264.500 L 1133.369 264.500 1141.253 284.899 C 1149.920 307.326, 1149.893 306.500, 1142 307.528 C 1131.009 308.959, 1130.668 309.143, 1129.176 314.426 C 1128.176 317.964, 1128.033 321.088, 1128.651 325.894 L 1129.500 332.500 1141.500 332 C 1158.671 331.285, 1199.225 331.466, 1207.678 332.296 L 1214.856 333.001 1217.020 327.250 C 1219.043 321.876, 1219.486 312.153, 1217.787 310.454 C 1217.485 310.152, 1212.406 308.598, 1206.500 307 C 1200.594 305.402, 1195.660 303.961, 1195.536 303.798 C 1195.361 303.567, 1121.315 119.537, 1119.270 114.250 C 1118.734 112.864, 1117.241 112.844, 1108.601 114.105 M 1450 113.957 C 1443.636 114.801, 1438.546 117.152, 1437.541 119.713 C 1436.881 121.394, 1376.423 291.737, 1373.328 300.635 C 1371.749 305.176, 1370.761 305.638, 1357.006 308.261 L 1350.512 309.500 1349.131 314.675 C 1348.188 318.212, 1347.975 321.939, 1348.458 326.454 L 1349.166 333.059 1358.333 332.280 C 1369.332 331.344, 1402.662 331.365, 1412.630 332.313 L 1419.759 332.992 1422.006 326.985 C 1423.648 322.593, 1424.123 319.630, 1423.771 315.967 C 1423.506 313.211, 1423.031 310.698, 1422.715 310.382 C 1422.400 310.066, 1418.172 308.791, 1413.321 307.549 C 1407.057 305.945, 1404.591 304.885, 1404.812 303.895 C 1404.984 303.128, 1408.081 293.837, 1411.695 283.250 L 1418.266 264 1445.964 264 L 1473.661 264 1481.700 284.750 C 1490.904 308.507, 1491.222 306.235, 1478.427 308.139 L 1471.200 309.213 1469.967 313.619 C 1468.848 317.615, 1469.013 331.346, 1470.194 332.527 C 1470.445 332.778, 1478.041 332.483, 1487.075 331.872 C 1502.884 330.801, 1543.120 331.279, 1551.231 332.633 C 1554.919 333.248, 1554.986 333.199, 1557.068 328.378 C 1559.278 323.260, 1560.005 312.605, 1558.263 310.863 C 1557.747 310.347, 1552.729 308.644, 1547.112 307.079 C 1541.494 305.513, 1536.613 303.946, 1536.264 303.598 C 1535.915 303.249, 1518.495 260.334, 1497.551 208.232 C 1465.502 128.501, 1459.157 113.478, 1457.486 113.364 C 1456.394 113.289, 1453.025 113.556, 1450 113.957 M 915.500 116.090 C 905.228 117.021, 889.777 120.809, 880.691 124.624 C 857.830 134.222, 836.891 154.263, 827.375 175.652 C 820.456 191.203, 817.635 206.312, 817.692 227.500 C 817.794 265.413, 828.685 291.975, 852.888 313.336 C 864.806 323.855, 876.942 329.942, 893.964 333.938 C 906.381 336.853, 929.331 336.922, 943.022 334.085 C 958.848 330.805, 977.815 323.579, 988.750 316.663 L 993 313.975 993 286.094 C 993 261.402, 993.184 258.143, 994.608 257.597 C 995.492 257.258, 1000.217 256.435, 1005.108 255.769 L 1014 254.558 1014 247.406 C 1014 242.352, 1013.394 238.884, 1011.935 235.585 L 1009.869 230.916 1003.685 231.697 C 995.782 232.696, 944.170 232.696, 937.285 231.697 L 932.071 230.941 929.866 235.220 C 927.483 239.844, 926.716 251.116, 928.651 253.051 C 929.216 253.616, 934.025 255.251, 939.339 256.685 L 949 259.292 949 281.106 L 949 302.920 942.663 304.877 C 921.752 311.336, 899.559 306.719, 885.932 293.075 C 870.462 277.585, 863.238 253.801, 864.347 222 C 865.061 201.498, 867.840 190.266, 875.730 176 C 880.756 166.910, 893.653 154.222, 902 150.155 C 916.364 143.155, 934.034 142.233, 952.594 147.515 L 957.687 148.965 959 167.006 C 959.723 176.928, 960.805 185.699, 961.407 186.497 C 964.294 190.327, 982.150 192.010, 984.798 188.701 C 986.013 187.182, 990.305 171.983, 992.478 161.500 C 993.391 157.100, 994.395 148.254, 994.711 141.843 L 995.286 130.186 991.393 128.216 C 980.025 122.462, 961.481 117.560, 945.260 116.022 C 933.297 114.888, 928.659 114.898, 915.500 116.090 M 1182.131 124.139 C 1180.001 129.265, 1179.280 138.318, 1180.810 140.727 C 1181.239 141.402, 1186.717 143.427, 1192.983 145.227 L 1204.377 148.500 1233.128 195 L 1261.878 241.500 1261.939 273.275 L 1262 305.050 1259.628 305.951 C 1258.323 306.447, 1253.644 307.381, 1249.230 308.027 L 1241.204 309.200 1239.960 313.642 C 1238.889 317.470, 1239.091 331.425, 1240.235 332.569 C 1240.418 332.751, 1247.977 332.422, 1257.034 331.837 C 1272.947 330.809, 1315.265 331.303, 1321.710 332.592 C 1324.626 333.175, 1325.009 332.911, 1327.137 328.860 C 1328.840 325.617, 1329.435 322.792, 1329.463 317.833 C 1329.483 314.167, 1329.223 310.889, 1328.884 310.550 C 1328.545 310.212, 1323.145 308.698, 1316.884 307.186 L 1305.500 304.438 1305.244 270.469 L 1304.987 236.500 1330.521 193.008 C 1344.565 169.087, 1356.633 148.938, 1357.340 148.232 C 1358.046 147.526, 1362.196 146.261, 1366.562 145.421 C 1382.890 142.280, 1381.339 143.085, 1382.850 136.967 C 1383.804 133.100, 1383.951 129.744, 1383.350 125.500 L 1382.500 119.500 1370.500 120 C 1353.235 120.719, 1328.824 120.615, 1319.254 119.782 L 1311.008 119.063 1308.791 123.282 C 1307.163 126.380, 1306.564 129.271, 1306.537 134.167 C 1306.517 137.833, 1306.766 141.099, 1307.091 141.424 C 1307.416 141.749, 1311.239 142.947, 1315.585 144.085 C 1319.932 145.224, 1323.641 146.308, 1323.827 146.493 C 1324.224 146.891, 1290.285 204.941, 1288.628 206.696 C 1287.775 207.600, 1283.311 200.647, 1270.330 178.196 C 1260.886 161.863, 1253.011 147.839, 1252.830 147.031 C 1252.580 145.920, 1254.332 145.251, 1260 144.291 C 1264.125 143.592, 1267.992 142.832, 1268.594 142.601 C 1270.563 141.847, 1272.279 130.794, 1271.340 124.913 L 1270.476 119.500 1255.988 120 C 1235.841 120.695, 1199.921 120.529, 1191.381 119.701 L 1184.262 119.010 1182.131 124.139 M 401 146.223 C 399.303 147.121, 398.125 148.983, 397.330 152.023 C 395.826 157.782, 395.562 201.611, 397.026 202.516 C 399.686 204.160, 408.936 204.182, 413.834 202.555 C 423.809 199.242, 427.464 191.169, 427.440 172.500 C 427.426 161.936, 427.142 159.921, 425.062 155.665 C 421.919 149.233, 416.925 145.964, 409.317 145.362 C 405.586 145.066, 402.604 145.375, 401 146.223 M 121.256 156.645 C 113.185 160.624, 107.270 171.679, 106.275 184.646 C 104.878 202.863, 112.632 234.574, 123.993 257.106 C 134.221 277.390, 146.694 287.968, 160.412 287.990 C 177.514 288.018, 185.862 271.409, 183.053 242.943 C 180.026 212.258, 166.803 178.453, 152.322 164.379 C 143.519 155.823, 129.834 152.416, 121.256 156.645 M 1096.088 209.755 C 1092.098 221.715, 1088.608 232.063, 1088.333 232.750 C 1087.945 233.720, 1091.550 234, 1104.417 234 C 1113.537 234, 1121 233.801, 1121 233.557 C 1121 233.051, 1103.904 188.628, 1103.566 188.255 C 1103.444 188.120, 1100.079 197.795, 1096.088 209.755 M 1443.008 189.083 C 1443.013 189.863, 1439.818 200.092, 1435.908 211.817 C 1431.999 223.541, 1429.006 233.340, 1429.259 233.592 C 1429.511 233.844, 1436.905 233.927, 1445.689 233.775 L 1461.660 233.500 1453.019 211.272 C 1444.666 189.786, 1442.991 186.073, 1443.008 189.083" stroke="none" fill="#c43424" fill-rule="evenodd"/><path d="M -0 225.001 L -0 450.001 800.250 449.751 L 1600.500 449.500 1600.752 224.750 L 1601.004 0 800.502 0 L 0 0 -0 225.001 M 0.491 225.500 C 0.491 349.250, 0.608 399.726, 0.750 337.670 C 0.892 275.613, 0.892 174.363, 0.750 112.670 C 0.608 50.976, 0.491 101.750, 0.491 225.500 M 801 225.500 L 801 359 1187.500 359 L 1574 359 1574 225.500 L 1574 92 1187.500 92 L 801 92 801 225.500 M 125.825 106.526 C 84.134 112.213, 53.423 133.410, 35.601 168.800 C 25.424 189.008, 21.692 207.458, 23.120 230.500 C 25.058 261.793, 42.714 293.854, 68.838 313.519 C 101.028 337.751, 142.883 345.012, 183.765 333.458 C 196.302 329.914, 214.903 320.414, 224.645 312.578 C 242.386 298.308, 255.070 280.213, 261.402 260.136 C 266.076 245.314, 267.291 235.385, 266.679 217 C 265.971 195.763, 262.987 183.101, 254.776 166.500 C 232.925 122.324, 182.373 98.812, 125.825 106.526 M 573 109.023 C 553.352 111.709, 545 117.637, 545 128.895 C 545 137.651, 549.091 142.713, 559.326 146.624 C 563.176 148.096, 568.010 150.821, 570.068 152.680 C 573.578 155.852, 605.659 196.786, 612.862 207.286 C 619.077 216.344, 619.253 217.679, 618.801 252.280 C 618.328 288.454, 618.203 289.068, 610.341 293.599 C 598.593 300.371, 596 303.714, 596 312.093 C 596 316.960, 596.298 317.582, 600.750 321.999 C 606.124 327.331, 612.902 330.289, 625.500 332.802 C 631.581 334.015, 639.618 334.394, 659 334.384 C 681.524 334.372, 685.586 334.119, 693.805 332.217 C 704.988 329.630, 712.033 326.003, 715.449 321.074 C 721.407 312.476, 719.145 301.374, 710.393 296.263 C 697.373 288.660, 696.876 287.022, 696.253 249.624 C 695.645 213.057, 696.497 208.651, 706.753 195.339 C 741.962 149.640, 747.039 144.452, 759.023 141.919 C 768.272 139.964, 772.410 136.906, 774.050 130.815 C 775.232 126.425, 773.852 119.663, 771.157 116.644 C 766.095 110.972, 752.206 107.985, 731.140 108.035 C 713.911 108.076, 702.876 109.808, 695.117 113.690 C 684.095 119.204, 682.170 126.935, 689 138.258 C 691.200 141.906, 693 145.964, 693 147.276 C 693 152.055, 683.933 166.547, 679.386 169.035 C 675.142 171.358, 669.787 166.704, 663.148 154.925 C 659.041 147.636, 659.019 145.541, 662.984 139.255 C 671.605 125.589, 665.665 114.541, 647.474 110.403 C 639.313 108.546, 583.983 107.521, 573 109.023 M 361.500 110.004 C 321.970 110.562, 319.118 110.724, 313 112.764 C 304.741 115.516, 300.147 119.311, 299.035 124.299 C 297.293 132.116, 301.362 138.109, 312.111 143.556 C 318.152 146.618, 319.463 149.215, 320.950 161.071 C 322.290 171.758, 322.320 244.619, 320.991 261.605 C 318.761 290.119, 317.288 295.208, 310.095 299.251 C 299.835 305.018, 296.169 312.615, 299.928 320.315 C 305.246 331.210, 320.858 335.017, 360 334.966 C 399.106 334.915, 413.800 331.076, 417.105 320.044 C 419.504 312.038, 416.320 306.008, 405.991 298.994 C 402.834 296.850, 399.876 294.287, 399.417 293.298 C 398.959 292.309, 398.417 280.298, 398.214 266.607 C 397.917 246.689, 398.109 241.547, 399.172 240.873 C 399.902 240.410, 402.795 240.024, 405.600 240.015 C 417.163 239.981, 425.402 251.777, 432.480 278.500 C 444.780 324.944, 455.016 335.028, 491.500 336.643 C 517.156 337.778, 538.856 330.914, 544.576 319.853 C 546.850 315.456, 546.786 309.548, 544.429 306.272 C 543.332 304.747, 539.074 301.834, 534.967 299.797 C 525.901 295.301, 525.140 293.900, 522.038 276 C 517.130 247.680, 507.751 232.064, 492.279 226.455 C 481.460 222.533, 477 220.132, 477 218.230 C 477 215.813, 480.137 213.012, 486.865 209.421 C 498.498 203.211, 507.679 190.605, 510.114 177.500 C 510.728 174.200, 510.992 167.450, 510.702 162.500 C 509.695 145.289, 502.598 132.501, 489.124 123.619 C 477.252 115.794, 465.788 112.034, 447.789 110.063 C 437.871 108.977, 434.395 108.975, 361.500 110.004 M 1108.601 114.105 C 1102.379 115.012, 1098.661 116.849, 1097.173 119.750 C 1096.679 120.712, 1081.716 162.626, 1063.922 212.891 C 1032.452 301.790, 1031.487 304.316, 1028.535 305.538 C 1026.866 306.229, 1022.013 307.352, 1017.752 308.034 L 1010.003 309.274 1008.904 313.358 C 1007.802 317.450, 1007.984 331.317, 1009.155 332.488 C 1009.497 332.831, 1015.565 332.580, 1022.639 331.931 C 1034.868 330.808, 1066.163 331.245, 1075.232 332.665 C 1078.898 333.239, 1079 333.166, 1080.982 328.542 C 1082.347 325.357, 1083 321.633, 1083 317.029 L 1083 310.224 1073.988 307.997 C 1069.031 306.772, 1064.754 305.411, 1064.482 304.971 C 1064.211 304.532, 1067.068 295.246, 1070.832 284.336 L 1077.677 264.500 1105.523 264.500 L 1133.369 264.500 1141.253 284.899 C 1149.920 307.326, 1149.893 306.500, 1142 307.528 C 1131.009 308.959, 1130.668 309.143, 1129.176 314.426 C 1128.176 317.964, 1128.033 321.088, 1128.651 325.894 L 1129.500 332.500 1141.500 332 C 1158.671 331.285, 1199.225 331.466, 1207.678 332.296 L 1214.856 333.001 1217.020 327.250 C 1219.043 321.876, 1219.486 312.153, 1217.787 310.454 C 1217.485 310.152, 1212.406 308.598, 1206.500 307 C 1200.594 305.402, 1195.660 303.961, 1195.536 303.798 C 1195.361 303.567, 1121.315 119.537, 1119.270 114.250 C 1118.734 112.864, 1117.241 112.844, 1108.601 114.105 M 1450 113.957 C 1443.636 114.801, 1438.546 117.152, 1437.541 119.713 C 1436.881 121.394, 1376.423 291.737, 1373.328 300.635 C 1371.749 305.176, 1370.761 305.638, 1357.006 308.261 L 1350.512 309.500 1349.131 314.675 C 1348.188 318.212, 1347.975 321.939, 1348.458 326.454 L 1349.166 333.059 1358.333 332.280 C 1369.332 331.344, 1402.662 331.365, 1412.630 332.313 L 1419.759 332.992 1422.006 326.985 C 1423.648 322.593, 1424.123 319.630, 1423.771 315.967 C 1423.506 313.211, 1423.031 310.698, 1422.715 310.382 C 1422.400 310.066, 1418.172 308.791, 1413.321 307.549 C 1407.057 305.945, 1404.591 304.885, 1404.812 303.895 C 1404.984 303.128, 1408.081 293.837, 1411.695 283.250 L 1418.266 264 1445.964 264 L 1473.661 264 1481.700 284.750 C 1490.904 308.507, 1491.222 306.235, 1478.427 308.139 L 1471.200 309.213 1469.967 313.619 C 1468.848 317.615, 1469.013 331.346, 1470.194 332.527 C 1470.445 332.778, 1478.041 332.483, 1487.075 331.872 C 1502.884 330.801, 1543.120 331.279, 1551.231 332.633 C 1554.919 333.248, 1554.986 333.199, 1557.068 328.378 C 1559.278 323.260, 1560.005 312.605, 1558.263 310.863 C 1557.747 310.347, 1552.729 308.644, 1547.112 307.079 C 1541.494 305.513, 1536.613 303.946, 1536.264 303.598 C 1535.915 303.249, 1518.495 260.334, 1497.551 208.232 C 1465.502 128.501, 1459.157 113.478, 1457.486 113.364 C 1456.394 113.289, 1453.025 113.556, 1450 113.957 M 915.500 116.090 C 905.228 117.021, 889.777 120.809, 880.691 124.624 C 857.830 134.222, 836.891 154.263, 827.375 175.652 C 820.456 191.203, 817.635 206.312, 817.692 227.500 C 817.794 265.413, 828.685 291.975, 852.888 313.336 C 864.806 323.855, 876.942 329.942, 893.964 333.938 C 906.381 336.853, 929.331 336.922, 943.022 334.085 C 958.848 330.805, 977.815 323.579, 988.750 316.663 L 993 313.975 993 286.094 C 993 261.402, 993.184 258.143, 994.608 257.597 C 995.492 257.258, 1000.217 256.435, 1005.108 255.769 L 1014 254.558 1014 247.406 C 1014 242.352, 1013.394 238.884, 1011.935 235.585 L 1009.869 230.916 1003.685 231.697 C 995.782 232.696, 944.170 232.696, 937.285 231.697 L 932.071 230.941 929.866 235.220 C 927.483 239.844, 926.716 251.116, 928.651 253.051 C 929.216 253.616, 934.025 255.251, 939.339 256.685 L 949 259.292 949 281.106 L 949 302.920 942.663 304.877 C 921.752 311.336, 899.559 306.719, 885.932 293.075 C 870.462 277.585, 863.238 253.801, 864.347 222 C 865.061 201.498, 867.840 190.266, 875.730 176 C 880.756 166.910, 893.653 154.222, 902 150.155 C 916.364 143.155, 934.034 142.233, 952.594 147.515 L 957.687 148.965 959 167.006 C 959.723 176.928, 960.805 185.699, 961.407 186.497 C 964.294 190.327, 982.150 192.010, 984.798 188.701 C 986.013 187.182, 990.305 171.983, 992.478 161.500 C 993.391 157.100, 994.395 148.254, 994.711 141.843 L 995.286 130.186 991.393 128.216 C 980.025 122.462, 961.481 117.560, 945.260 116.022 C 933.297 114.888, 928.659 114.898, 915.500 116.090 M 1182.131 124.139 C 1180.001 129.265, 1179.280 138.318, 1180.810 140.727 C 1181.239 141.402, 1186.717 143.427, 1192.983 145.227 L 1204.377 148.500 1233.128 195 L 1261.878 241.500 1261.939 273.275 L 1262 305.050 1259.628 305.951 C 1258.323 306.447, 1253.644 307.381, 1249.230 308.027 L 1241.204 309.200 1239.960 313.642 C 1238.889 317.470, 1239.091 331.425, 1240.235 332.569 C 1240.418 332.751, 1247.977 332.422, 1257.034 331.837 C 1272.947 330.809, 1315.265 331.303, 1321.710 332.592 C 1324.626 333.175, 1325.009 332.911, 1327.137 328.860 C 1328.840 325.617, 1329.435 322.792, 1329.463 317.833 C 1329.483 314.167, 1329.223 310.889, 1328.884 310.550 C 1328.545 310.212, 1323.145 308.698, 1316.884 307.186 L 1305.500 304.438 1305.244 270.469 L 1304.987 236.500 1330.521 193.008 C 1344.565 169.087, 1356.633 148.938, 1357.340 148.232 C 1358.046 147.526, 1362.196 146.261, 1366.562 145.421 C 1382.890 142.280, 1381.339 143.085, 1382.850 136.967 C 1383.804 133.100, 1383.951 129.744, 1383.350 125.500 L 1382.500 119.500 1370.500 120 C 1353.235 120.719, 1328.824 120.615, 1319.254 119.782 L 1311.008 119.063 1308.791 123.282 C 1307.163 126.380, 1306.564 129.271, 1306.537 134.167 C 1306.517 137.833, 1306.766 141.099, 1307.091 141.424 C 1307.416 141.749, 1311.239 142.947, 1315.585 144.085 C 1319.932 145.224, 1323.641 146.308, 1323.827 146.493 C 1324.224 146.891, 1290.285 204.941, 1288.628 206.696 C 1287.775 207.600, 1283.311 200.647, 1270.330 178.196 C 1260.886 161.863, 1253.011 147.839, 1252.830 147.031 C 1252.580 145.920, 1254.332 145.251, 1260 144.291 C 1264.125 143.592, 1267.992 142.832, 1268.594 142.601 C 1270.563 141.847, 1272.279 130.794, 1271.340 124.913 L 1270.476 119.500 1255.988 120 C 1235.841 120.695, 1199.921 120.529, 1191.381 119.701 L 1184.262 119.010 1182.131 124.139 M 401 146.223 C 399.303 147.121, 398.125 148.983, 397.330 152.023 C 395.826 157.782, 395.562 201.611, 397.026 202.516 C 399.686 204.160, 408.936 204.182, 413.834 202.555 C 423.809 199.242, 427.464 191.169, 427.440 172.500 C 427.426 161.936, 427.142 159.921, 425.062 155.665 C 421.919 149.233, 416.925 145.964, 409.317 145.362 C 405.586 145.066, 402.604 145.375, 401 146.223 M 121.256 156.645 C 113.185 160.624, 107.270 171.679, 106.275 184.646 C 104.878 202.863, 112.632 234.574, 123.993 257.106 C 134.221 277.390, 146.694 287.968, 160.412 287.990 C 177.514 288.018, 185.862 271.409, 183.053 242.943 C 180.026 212.258, 166.803 178.453, 152.322 164.379 C 143.519 155.823, 129.834 152.416, 121.256 156.645 M 1096.088 209.755 C 1092.098 221.715, 1088.608 232.063, 1088.333 232.750 C 1087.945 233.720, 1091.550 234, 1104.417 234 C 1113.537 234, 1121 233.801, 1121 233.557 C 1121 233.051, 1103.904 188.628, 1103.566 188.255 C 1103.444 188.120, 1100.079 197.795, 1096.088 209.755 M 1443.008 189.083 C 1443.013 189.863, 1439.818 200.092, 1435.908 211.817 C 1431.999 223.541, 1429.006 233.340, 1429.259 233.592 C 1429.511 233.844, 1436.905 233.927, 1445.689 233.775 L 1461.660 233.500 1453.019 211.272 C 1444.666 189.786, 1442.991 186.073, 1443.008 189.083" stroke="none" fill="#fbfbfb" fill-rule="evenodd"/></svg>